<svg width="48" height="48" viewBox="0 0 48 48" fill="none" xmlns="http://www.w3.org/2000/svg">
  <rect width="48" height="48" rx="12" fill="url(#gradient)"/>
  <path d="M24 12C19.5817 12 16 15.5817 16 20V28C16 32.4183 19.5817 36 24 36C28.4183 36 32 32.4183 32 28V20C32 15.5817 28.4183 12 24 12Z" fill="white" opacity="0.9"/>
  <path d="M20 22C20 20.8954 20.8954 20 22 20H26C27.1046 20 28 20.8954 28 22V26C28 27.1046 27.1046 28 26 28H22C20.8954 28 20 27.1046 20 26V22Z" fill="url(#gradient2)"/>
  <defs>
    <linearGradient id="gradient" x1="0" y1="0" x2="48" y2="48" gradientUnits="userSpaceOnUse">
      <stop stop-color="#007AFF"/>
      <stop offset="1" stop-color="#0051D5"/>
    </linearGradient>
    <linearGradient id="gradient2" x1="20" y1="20" x2="28" y2="28" gradientUnits="userSpaceOnUse">
      <stop stop-color="#007AFF"/>
      <stop offset="1" stop-color="#0051D5"/>
    </linearGradient>
  </defs>
</svg>

